<svg xmlns="http://www.w3.org/2000/svg" viewBox="0 0 64 64" role="img" aria-label="GC">
  <rect width="64" height="64" rx="18" fill="#10251c" />
  <path d="M31.2 21.4c-2.2-2.1-4.8-3.1-7.9-3.1-7.3 0-12.1 5.7-12.1 13.7 0 8.2 5.1 13.7 12.5 13.7 3.8 0 6.8-1.2 9-3.5v-9.7h-9.6v5.2h3.5v1.6c-.8.6-1.7.9-2.9.9-3.7 0-5.9-3.1-5.9-8.2 0-5 2.1-8.2 5.7-8.2 1.8 0 3.2.6 4.6 1.9l3.1-4.3Z" fill="#f8f5ee" />
  <path d="M52.1 41.8c-2.2 2.5-5.1 3.9-8.6 3.9-7.2 0-12-5.5-12-13.7 0-8.1 4.8-13.7 12-13.7 3.5 0 6.3 1.3 8.4 3.7l-3.5 4.1c-1.3-1.5-2.7-2.2-4.6-2.2-3.6 0-5.8 3.1-5.8 8.1 0 5.1 2.2 8.2 5.8 8.2 2 0 3.6-.8 4.9-2.4l3.4 4Z" fill="#c36f32" />
</svg>
